<svg width="119" height="44" viewBox="0 0 119 44" fill="none" xmlns="http://www.w3.org/2000/svg">
<g id="Logo">
<path d="M4.18731 16.4355H9.67243V19.6784H0V2.43216H4.18731V16.4355Z" fill="white"/>
<path d="M17.3997 19.8749C16.061 19.8749 14.853 19.5883 13.7756 19.0151C12.7145 18.4418 11.8737 17.6229 11.2534 16.5583C10.6494 15.4938 10.3474 14.249 10.3474 12.8241C10.3474 11.4156 10.6575 10.179 11.2779 9.11446C11.8982 8.0335 12.7471 7.2064 13.8245 6.63317C14.902 6.05993 16.11 5.77331 17.4486 5.77331C18.7873 5.77331 19.9953 6.05993 21.0727 6.63317C22.1502 7.2064 22.9991 8.0335 23.6194 9.11446C24.2397 10.179 24.5499 11.4156 24.5499 12.8241C24.5499 14.2326 24.2316 15.4774 23.5949 16.5583C22.9746 17.6229 22.1175 18.4418 21.0238 19.0151C19.9463 19.5883 18.7383 19.8749 17.3997 19.8749ZM17.3997 16.239C18.1996 16.239 18.8771 15.9442 19.4321 15.3546C20.0035 14.7649 20.2891 13.9215 20.2891 12.8241C20.2891 11.7268 20.0116 10.8833 19.4566 10.2937C18.9179 9.70408 18.2486 9.40927 17.4486 9.40927C16.6324 9.40927 15.9549 9.70408 15.4162 10.2937C14.8775 10.8669 14.6081 11.7104 14.6081 12.8241C14.6081 13.9215 14.8693 14.7649 15.3917 15.3546C15.9304 15.9442 16.5997 16.239 17.3997 16.239Z" fill="white"/>
<path d="M31.4729 5.77331C32.4361 5.77331 33.2768 5.96985 33.9951 6.36293C34.7297 6.756 35.2929 7.27192 35.6847 7.91066V5.96985H39.872V19.6538C39.872 20.9149 39.619 22.0532 39.1129 23.0687C38.6231 24.1005 37.864 24.9194 36.8356 25.5254C35.8234 26.1314 34.5583 26.4344 33.0401 26.4344C31.0158 26.4344 29.3752 25.9512 28.1182 24.9849C26.8611 24.035 26.1429 22.7411 25.9633 21.1033H30.1016C30.2322 21.6274 30.5424 22.0369 31.0321 22.3317C31.5219 22.6428 32.1259 22.7984 32.8442 22.7984C33.7094 22.7984 34.395 22.5446 34.9011 22.0369C35.4235 21.5455 35.6847 20.7512 35.6847 19.6538V17.713C35.2766 18.3518 34.7134 18.8759 33.9951 19.2853C33.2768 19.6784 32.4361 19.8749 31.4729 19.8749C30.3465 19.8749 29.3262 19.5883 28.412 19.0151C27.4978 18.4255 26.7714 17.5984 26.2326 16.5338C25.7102 15.4528 25.4491 14.2081 25.4491 12.7996C25.4491 11.391 25.7102 10.1545 26.2326 9.08989C26.7714 8.02531 27.4978 7.2064 28.412 6.63317C29.3262 6.05993 30.3465 5.77331 31.4729 5.77331ZM35.6847 12.8241C35.6847 11.7759 35.3908 10.9488 34.8032 10.3428C34.2318 9.73683 33.5298 9.43384 32.6973 9.43384C31.8647 9.43384 31.1546 9.73683 30.5669 10.3428C29.9955 10.9324 29.7098 11.7513 29.7098 12.7996C29.7098 13.8478 29.9955 14.683 30.5669 15.3054C31.1546 15.9114 31.8647 16.2144 32.6973 16.2144C33.5298 16.2144 34.2318 15.9114 34.8032 15.3054C35.3908 14.6994 35.6847 13.8723 35.6847 12.8241Z" fill="white"/>
<path d="M44.5175 4.54495C43.7829 4.54495 43.1788 4.33203 42.7054 3.9062C42.2483 3.46399 42.0198 2.92351 42.0198 2.28476C42.0198 1.62963 42.2483 1.08915 42.7054 0.663317C43.1788 0.221106 43.7829 0 44.5175 0C45.2358 0 45.8235 0.221106 46.2806 0.663317C46.754 1.08915 46.9907 1.62963 46.9907 2.28476C46.9907 2.92351 46.754 3.46399 46.2806 3.9062C45.8235 4.33203 45.2358 4.54495 44.5175 4.54495ZM46.5989 5.96985V19.6784H42.4116V5.96985H46.5989Z" fill="white"/>
<path d="M57.4693 5.82245C59.0691 5.82245 60.3424 6.34655 61.2893 7.39475C62.2524 8.42658 62.734 9.85148 62.734 11.6695V19.6784H58.5712V12.2345C58.5712 11.3173 58.3345 10.6049 57.8611 10.0972C57.3877 9.58943 56.751 9.33557 55.9511 9.33557C55.1512 9.33557 54.5145 9.58943 54.0411 10.0972C53.5677 10.6049 53.3309 11.3173 53.3309 12.2345V19.6784H49.1436V5.96985H53.3309V7.78783C53.7554 7.18184 54.3268 6.70687 55.045 6.36293C55.7633 6.00261 56.5714 5.82245 57.4693 5.82245Z" fill="white"/>
<path d="M67.113 19.8749C66.3784 19.8749 65.7744 19.662 65.301 19.2362C64.8439 18.794 64.6153 18.2535 64.6153 17.6147C64.6153 16.9596 64.8439 16.4109 65.301 15.9687C65.7744 15.5265 66.3784 15.3054 67.113 15.3054C67.8313 15.3054 68.419 15.5265 68.8761 15.9687C69.3495 16.4109 69.5862 16.9596 69.5862 17.6147C69.5862 18.2535 69.3495 18.794 68.8761 19.2362C68.419 19.662 67.8313 19.8749 67.113 19.8749Z" fill="white"/>
<path d="M46.5158 37.8549C45.3426 37.8549 44.2913 37.6638 43.3619 37.2817C42.4325 36.8995 41.6859 36.3339 41.1221 35.5849C40.5736 34.8359 40.2841 33.934 40.2536 32.8792H44.4132C44.4741 33.4754 44.6798 33.934 45.0303 34.255C45.3807 34.5607 45.8378 34.7136 46.4015 34.7136C46.9805 34.7136 47.4376 34.5836 47.7728 34.3238C48.108 34.0486 48.2756 33.6741 48.2756 33.2002C48.2756 32.8028 48.1385 32.4741 47.8642 32.2143C47.6052 31.9544 47.2776 31.7404 46.8815 31.5722C46.5006 31.4041 45.9521 31.213 45.236 30.999C44.1999 30.678 43.3543 30.357 42.6991 30.036C42.0439 29.7149 41.4802 29.2411 41.0078 28.6143C40.5355 27.9876 40.2993 27.1698 40.2993 26.1609C40.2993 24.6628 40.8402 23.4934 41.922 22.6527C43.0038 21.7966 44.4132 21.3686 46.1501 21.3686C47.9176 21.3686 49.3422 21.7966 50.424 22.6527C51.5058 23.4934 52.0847 24.6705 52.1609 26.1838H47.9328C47.9023 25.6641 47.7119 25.259 47.3614 24.9685C47.011 24.6628 46.5615 24.51 46.013 24.51C45.5407 24.51 45.1598 24.6399 44.8703 24.8998C44.5808 25.1443 44.436 25.5036 44.436 25.9774C44.436 26.4972 44.6798 26.9023 45.1674 27.1927C45.655 27.4831 46.4168 27.7965 47.4529 28.1328C48.4889 28.4844 49.3269 28.8207 49.9669 29.1417C50.622 29.4627 51.1858 29.929 51.6581 30.5404C52.1305 31.1519 52.3666 31.9391 52.3666 32.9021C52.3666 33.8193 52.1305 34.6524 51.6581 35.4015C51.201 36.1505 50.5306 36.7466 49.6469 37.1899C48.7632 37.6333 47.7195 37.8549 46.5158 37.8549Z" fill="white"/>
<path d="M56.2801 23.5698C55.5945 23.5698 55.0307 23.3711 54.5889 22.9737C54.1623 22.561 53.949 22.0565 53.949 21.4603C53.949 20.8489 54.1623 20.3444 54.5889 19.947C55.0307 19.5343 55.5945 19.3279 56.2801 19.3279C56.9505 19.3279 57.499 19.5343 57.9257 19.947C58.3675 20.3444 58.5885 20.8489 58.5885 21.4603C58.5885 22.0565 58.3675 22.561 57.9257 22.9737C57.499 23.3711 56.9505 23.5698 56.2801 23.5698ZM58.2228 24.8998V37.6944H54.3146V24.8998H58.2228Z" fill="white"/>
<path d="M65.4431 24.7163C66.342 24.7163 67.1267 24.8998 67.7971 25.2666C68.4827 25.6335 69.0084 26.115 69.3741 26.7112V24.8998H73.2822V37.6715C73.2822 38.8485 73.0461 39.9109 72.5737 40.8587C72.1166 41.8217 71.4081 42.586 70.4482 43.1516C69.5036 43.7172 68.3228 44 66.9058 44C65.0165 44 63.4852 43.5491 62.312 42.6472C61.1388 41.7606 60.4684 40.5529 60.3008 39.0243H64.1632C64.2851 39.5135 64.5746 39.8956 65.0317 40.1708C65.4888 40.4612 66.0525 40.6064 66.7229 40.6064C67.5305 40.6064 68.1704 40.3695 68.6427 39.8956C69.1303 39.437 69.3741 38.6956 69.3741 37.6715V35.86C68.9932 36.4562 68.4675 36.9454 67.7971 37.3275C67.1267 37.6944 66.342 37.8778 65.4431 37.8778C64.3918 37.8778 63.4395 37.6103 62.5862 37.0753C61.733 36.525 61.055 35.753 60.5522 34.7594C60.0646 33.7505 59.8208 32.5888 59.8208 31.2741C59.8208 29.9595 60.0646 28.8054 60.5522 27.8118C61.055 26.8182 61.733 26.0539 62.5862 25.5189C63.4395 24.9838 64.3918 24.7163 65.4431 24.7163ZM69.3741 31.2971C69.3741 30.3188 69.0998 29.5468 68.5513 28.9812C68.018 28.4156 67.3629 28.1328 66.5858 28.1328C65.8088 28.1328 65.146 28.4156 64.5974 28.9812C64.0642 29.5315 63.7975 30.2958 63.7975 31.2741C63.7975 32.2525 64.0642 33.0321 64.5974 33.613C65.146 34.1785 65.8088 34.4613 66.5858 34.4613C67.3629 34.4613 68.018 34.1785 68.5513 33.613C69.0998 33.0474 69.3741 32.2754 69.3741 31.2971Z" fill="white"/>
<path d="M83.4231 24.7622C84.9163 24.7622 86.1047 25.2513 86.9884 26.2297C87.8874 27.1927 88.3369 28.5226 88.3369 30.2194V37.6944H84.4516V30.7468C84.4516 29.8907 84.2306 29.2258 83.7888 28.7519C83.3469 28.278 82.7527 28.0411 82.0061 28.0411C81.2595 28.0411 80.6653 28.278 80.2234 28.7519C79.7816 29.2258 79.5607 29.8907 79.5607 30.7468V37.6944H75.6525V24.8998H79.5607V26.5965C79.9568 26.0309 80.4901 25.5876 81.1605 25.2666C81.8309 24.9303 82.5851 24.7622 83.4231 24.7622Z" fill="white"/>
<path d="M103.188 24.8998V37.6944H99.2803V35.9518C98.8842 36.5173 98.3433 36.9759 97.6577 37.3275C96.9872 37.6638 96.2407 37.832 95.4179 37.832C94.4428 37.832 93.5819 37.618 92.8353 37.1899C92.0887 36.7466 91.5097 36.1123 91.0984 35.2868C90.687 34.4613 90.4813 33.4907 90.4813 32.3748V24.8998H94.3666V31.8474C94.3666 32.7034 94.5875 33.3684 95.0294 33.8422C95.4712 34.3161 96.0654 34.5531 96.812 34.5531C97.5738 34.5531 98.1757 34.3161 98.6175 33.8422C99.0594 33.3684 99.2803 32.7034 99.2803 31.8474V24.8998H103.188Z" fill="white"/>
<path d="M109.447 26.7112C109.828 26.115 110.353 25.6335 111.024 25.2666C111.694 24.8998 112.479 24.7163 113.378 24.7163C114.429 24.7163 115.381 24.9838 116.235 25.5189C117.088 26.0539 117.758 26.8182 118.246 27.8118C118.749 28.8054 119 29.9595 119 31.2741C119 32.5888 118.749 33.7505 118.246 34.7594C117.758 35.753 117.088 36.525 116.235 37.0753C115.381 37.6103 114.429 37.8778 113.378 37.8778C112.494 37.8778 111.709 37.6944 111.024 37.3275C110.353 36.9607 109.828 36.4868 109.447 35.9059V43.7936H105.539V24.8998H109.447V26.7112ZM115.023 31.2741C115.023 30.2958 114.749 29.5315 114.201 28.9812C113.667 28.4156 113.004 28.1328 112.212 28.1328C111.435 28.1328 110.772 28.4156 110.224 28.9812C109.691 29.5468 109.424 30.3188 109.424 31.2971C109.424 32.2754 109.691 33.0474 110.224 33.613C110.772 34.1785 111.435 34.4613 112.212 34.4613C112.989 34.4613 113.652 34.1785 114.201 33.613C114.749 33.0321 115.023 32.2525 115.023 31.2741Z" fill="white"/>
<path d="M112.272 42.7651C111.684 42.7651 111.201 42.5948 110.822 42.2541C110.457 41.9003 110.274 41.4679 110.274 40.9569C110.274 40.4328 110.457 39.9939 110.822 39.6401C111.201 39.2864 111.684 39.1095 112.272 39.1095C112.847 39.1095 113.317 39.2864 113.682 39.6401C114.061 39.9939 114.251 40.4328 114.251 40.9569C114.251 41.4679 114.061 41.9003 113.682 42.2541C113.317 42.5948 112.847 42.7651 112.272 42.7651Z" fill="white"/>
</g>
</svg>
